<svg width="100" height="100" viewBox="0 0 100 100" fill="none" xmlns="http://www.w3.org/2000/svg">
  <style>
    @media (prefers-color-scheme: dark) {
      path { fill: #ffffff; }
    }
    @media (prefers-color-scheme: light) {
      path { fill: #333333; }
    }
  </style>
  <path d="M9.09091 34.1463V65.8537C9.09091 67.1474 8.61201 68.3882 7.75958 69.303C6.90714 70.2178 5.75098 70.7317 4.54545 70.7317C3.33993 70.7317 2.18377 70.2178 1.33133 69.303C0.478896 68.3882 0 67.1474 0 65.8537V34.1463C0 32.8526 0.478896 31.6119 1.33133 30.697C2.18377 29.7822 3.33993 29.2683 4.54545 29.2683C5.75098 29.2683 6.90714 29.7822 7.75958 30.697C8.61201 31.6119 9.09091 32.8526 9.09091 34.1463ZM27.2727 14.6341C26.0672 14.6341 24.911 15.1481 24.0586 16.0629C23.2062 16.9777 22.7273 18.2185 22.7273 19.5122V80.4878C22.7273 81.7815 23.2062 83.0223 24.0586 83.9371C24.911 84.8519 26.0672 85.3659 27.2727 85.3659C28.4783 85.3659 29.6344 84.8519 30.4868 83.9371C31.3393 83.0223 31.8182 81.7815 31.8182 80.4878V19.5122C31.8182 18.2185 31.3393 16.9777 30.4868 16.0629C29.6344 15.1481 28.4783 14.6341 27.2727 14.6341ZM95.4545 29.2683C94.249 29.2683 93.0929 29.7822 92.2404 30.697C91.388 31.6119 90.9091 32.8526 90.9091 34.1463V65.8537C90.9091 67.1474 91.388 68.3882 92.2404 69.303C93.0929 70.2178 94.249 70.7317 95.4545 70.7317C96.6601 70.7317 97.8162 70.2178 98.6687 69.303C99.5211 68.3882 100 67.1474 100 65.8537V34.1463C100 32.8526 99.5211 31.6119 98.6687 30.697C97.8162 29.7822 96.6601 29.2683 95.4545 29.2683ZM72.7273 14.6341C71.5217 14.6341 70.3656 15.1481 69.5131 16.0629C68.6607 16.9777 68.1818 18.2185 68.1818 19.5122V80.4878C68.1818 81.7815 68.6607 83.0223 69.5131 83.9371C70.3656 84.8519 71.5217 85.3659 72.7273 85.3659C73.9328 85.3659 75.089 84.8519 75.9414 83.9371C76.7938 83.0223 77.2727 81.7815 77.2727 80.4878V19.5122C77.2727 18.2185 76.7938 16.9777 75.9414 16.0629C75.089 15.1481 73.9328 14.6341 72.7273 14.6341ZM50 0C48.7945 0 47.6383 0.513937 46.7859 1.42875C45.9334 2.34356 45.4545 3.58431 45.4545 4.87805V95.122C45.4545 96.4157 45.9334 97.6564 46.7859 98.5713C47.6383 99.4861 48.7945 100 50 100C51.2055 100 52.3617 99.4861 53.2141 98.5713C54.0666 97.6564 54.5455 96.4157 54.5455 95.122V4.87805C54.5455 3.58431 54.0666 2.34356 53.2141 1.42875C52.3617 0.513937 51.2055 0 50 0Z"/>
</svg>
